<?xml version="1.0" encoding="UTF-8"?>
<svg version="1.1" xmlns="http://www.w3.org/2000/svg" width="512" height="512">
<path d="M0 0 C168.96 0 337.92 0 512 0 C512 168.96 512 337.92 512 512 C343.04 512 174.08 512 0 512 C0 343.04 0 174.08 0 0 Z " fill="#000000" transform="translate(0,0)"/>
<path d="M0 0 C12.13124582 4.74304348 24.07353692 9.75455533 35.95703125 15.08520508 C45.36882287 19.29797199 54.82939489 23.38803681 64.3125 27.4375 C67.30603113 28.71604861 70.29954774 29.99463108 73.29296875 31.2734375 C74.02833359 31.58754578 74.76369843 31.90165405 75.52134705 32.22528076 C83.93938429 35.82408921 92.3330637 39.47852716 100.72851562 43.12963867 C107.52839362 46.08060668 114.34045861 49.00021556 121.16796875 51.88671875 C121.93318848 52.21035904 122.6984082 52.53399933 123.48681641 52.8674469 C127.22476835 54.44752026 130.96416149 56.02406795 134.70556641 57.59594727 C136.04982533 58.16287424 137.39406466 58.72984767 138.73828125 59.296875 C139.92462158 59.79541992 141.11096191 60.29396484 142.33325195 60.80761719 C145 62 145 62 146 63 C146.08783542 65.21855264 146.10694609 67.43988496 146.09765625 69.66015625 C146.09553383 70.65685585 146.09553383 70.65685585 146.09336853 71.6736908 C146.08775518 73.80333899 146.07520054 75.93288339 146.0625 78.0625 C146.05748671 79.50325369 146.05292351 80.94400903 146.04882812 82.38476562 C146.03778145 85.92321102 146.02050792 89.46159539 146 93 C136.29526607 97.60524959 126.51968334 101.99221867 116.63305664 106.19216919 C112.77260718 107.83236655 108.91593938 109.4814261 105.05859375 111.12890625 C104.28139984 111.46057297 103.50420593 111.79223969 102.70346069 112.13395691 C95.7913016 115.08495817 88.89358488 118.06834146 82 121.0625 C69.00266597 126.70122311 56.0023067 132.33293927 42.99682617 137.95285034 C40.73478582 138.9307241 38.4730589 139.90932325 36.21166992 140.88870239 C32.99742032 142.28061393 29.78203376 143.66986897 26.56640625 145.05859375 C25.1520504 145.67207169 25.1520504 145.67207169 23.7091217 146.29794312 C15.85679954 149.68392415 7.9493556 152.82025776 0 156 C0 142.47 0 128.94 0 115 C3.980625 113.411875 7.96125 111.82375 12.0625 110.1875 C26.26340613 104.51237562 40.4460178 98.79214994 54.625 93.0625 C56.15460861 92.44476212 56.15460861 92.44476212 57.71511841 91.81454468 C60.67756267 90.61797992 63.63961835 89.42045836 66.6015625 88.22265625 C67.52817184 87.84846054 68.45478119 87.47426483 69.4094696 87.08872986 C75.26058416 84.72092038 81.08213962 82.29737714 86.86865234 79.77514648 C89 79 89 79 92 79 C92 78.34 92 77.68 92 77 C91.27370392 76.87251877 90.54740784 76.74503754 89.79910278 76.61369324 C87.1059452 76.0232281 84.76412798 75.21905691 82.21435547 74.1809082 C80.821035 73.61746201 80.821035 73.61746201 79.39956665 73.04263306 C78.39888153 72.63282196 77.39819641 72.22301086 76.3671875 71.80078125 C75.31340912 71.37340668 74.25963074 70.9460321 73.17391968 70.50570679 C69.73933858 69.11189309 66.30720203 67.71216045 62.875 66.3125 C59.34046815 64.87669214 55.80531213 63.44242847 52.2701416 62.00819397 C49.9059185 61.04886091 47.54190504 60.08901102 45.17810059 59.12864685 C30.14411306 53.0219257 15.07086761 47.01512699 0 41 C0 27.47 0 13.94 0 0 Z " fill="#E8C332" transform="translate(337,183)"/>
<path d="M0 0 C0 13.53 0 27.06 0 41 C-16.875 47.75 -16.875 47.75 -22.61914062 50.04589844 C-31.82873617 53.72697995 -41.03572476 57.4143839 -50.23727417 61.11553955 C-54.82349203 62.95990016 -59.41075288 64.8016584 -63.99810791 66.64318848 C-66.25197971 67.54877833 -68.50535651 68.45560111 -70.75823975 69.36364746 C-73.92873067 70.64138037 -77.10088808 71.91488857 -80.2734375 73.1875 C-81.22996216 73.57423889 -82.18648682 73.96097778 -83.17199707 74.35943604 C-84.48170471 74.88340973 -84.48170471 74.88340973 -85.81787109 75.41796875 C-86.96260391 75.87852661 -86.96260391 75.87852661 -88.13046265 76.34838867 C-90 77 -90 77 -92 77 C-92 77.66 -92 78.32 -92 79 C-91.39445786 79.17065475 -90.78891571 79.34130951 -90.1650238 79.51713562 C-83.93712561 81.32184874 -77.96692247 83.49327205 -71.97265625 85.95703125 C-71.03715942 86.3370932 -70.1016626 86.71715515 -69.13781738 87.10873413 C-66.11104947 88.33928373 -63.0868075 89.57591751 -60.0625 90.8125 C-56.91320795 92.09430126 -53.76325274 93.37446331 -50.61326599 94.65455627 C-48.49486073 95.5155595 -46.37666627 96.37708156 -44.25868225 97.23912048 C-29.53407341 103.23025621 -14.76414116 109.10701662 0 115 C0 128.53 0 142.06 0 156 C-15.54956922 149.56146081 -31.03325535 142.99829093 -46.46084595 136.27340698 C-52.25340115 133.74856874 -58.04857739 131.22976104 -63.84375 128.7109375 C-64.98391068 128.21526779 -66.12407135 127.71959808 -67.29878235 127.20890808 C-76.78939352 123.08557724 -86.29632973 119.00142633 -95.8125 114.9375 C-107.25160719 110.05085998 -118.66701976 105.11258234 -130.0625 100.125 C-130.76210846 99.81891815 -131.46171692 99.5128363 -132.18252563 99.19747925 C-143.60125523 94.19937238 -143.60125523 94.19937238 -146 93 C-146 83.1 -146 73.2 -146 63 C-132.92803271 56.99396097 -119.80726786 51.15856225 -106.57473755 45.51676941 C-105.94808197 45.24955582 -105.32142639 44.98234222 -104.67578125 44.70703125 C-103.69869705 44.29043999 -103.69869705 44.29043999 -102.70187378 43.86543274 C-93.38782295 39.89034861 -84.09227311 35.87219798 -74.79446411 31.85931396 C-71.50238737 30.43853033 -68.21007801 29.01828693 -64.91772461 27.59814453 C-54.99501233 23.31741978 -45.07367575 19.03356352 -35.15679932 14.73933411 C-31.03935371 12.95640648 -26.92140821 11.17463492 -22.8034668 9.39285278 C-19.9159217 8.14271667 -17.02924423 6.89059188 -14.14257812 5.63842773 C-12.40499089 4.88645669 -10.6673631 4.13457932 -8.9296875 3.3828125 C-8.13436615 3.03707687 -7.3390448 2.69134125 -6.5196228 2.33512878 C-1.11377939 0 -1.11377939 0 0 0 Z " fill="#FDFDFD" transform="translate(178,183)"/>
<path d="M0 0 C12.54 0 25.08 0 38 0 C35.75002613 11.24986933 35.75002613 11.24986933 34.22125244 15.81053162 C33.87692673 16.84756226 33.53260101 17.8845929 33.17784119 18.95304871 C32.80494461 20.05578629 32.43204803 21.15852386 32.04785156 22.29467773 C31.65064407 23.48527802 31.25343658 24.6758783 30.8441925 25.90255737 C29.98400381 28.48065948 29.12004081 31.05745297 28.25302887 33.63326836 C26.86523447 37.75628934 25.48596542 41.88213338 24.10760498 46.00831604 C21.90845059 52.58819992 19.70346609 59.16611332 17.49609637 65.74324518 C13.3637815 78.05669764 9.24296525 90.37400437 5.12240028 102.6913929 C4.17498267 105.52343927 3.22723469 108.35537477 2.2792263 111.18722343 C-3.9802329 129.88698367 -10.17023479 148.60753152 -16.24790955 167.36727905 C-21.49833256 183.57195967 -26.86126079 199.73831558 -32.25512695 215.89575195 C-33.59074831 219.89671318 -34.92350409 223.89862319 -36.25560474 227.90075779 C-37.30194483 231.04336808 -38.34969514 234.18550671 -39.39789391 237.32749748 C-39.89153671 238.80776258 -40.38474012 240.28817429 -40.87748146 241.7687397 C-41.55204804 243.79496139 -42.22851387 245.82053879 -42.90551758 247.84594727 C-43.47838249 249.56334862 -43.47838249 249.56334862 -44.06282043 251.31544495 C-45 254 -45 254 -46 256 C-58.54 256 -71.08 256 -84 256 C-82.1217183 249.1129671 -80.21768551 242.36711106 -77.9440918 235.62109375 C-77.50899544 234.31777603 -77.50899544 234.31777603 -77.06510925 232.98812866 C-76.11258017 230.13698507 -75.1558537 227.28726828 -74.19921875 224.4375 C-73.51928458 222.40399453 -72.83967008 220.37038216 -72.16035461 218.33666992 C-70.36814373 212.97330493 -68.57261409 207.6110577 -66.77606201 202.24914551 C-63.60077958 192.77154613 -60.42988772 183.29247944 -57.26171875 173.8125 C-56.91238596 172.76751657 -56.56305317 171.72253315 -56.20313454 170.64588356 C-51.08869324 155.34024735 -46.05327472 140.01064849 -41.07595062 124.65993309 C-36.52989352 110.64367518 -31.91236986 96.65247113 -27.24609375 82.67578125 C-26.92394331 81.71077572 -26.60179287 80.74577019 -26.26988029 79.75152206 C-23.99461553 72.93778026 -21.71634393 66.12504543 -19.4375 59.3125 C-17.12164501 52.3888839 -14.8069299 45.46489008 -12.49470711 38.54006004 C-11.59152761 35.836852 -10.68650883 33.13426498 -9.78135681 30.43171692 C-9.22060308 28.75309195 -8.65993482 27.07443843 -8.09936523 25.39575195 C-7.85881409 24.67926483 -7.61826294 23.96277771 -7.37042236 23.22457886 C-4.80036952 15.51517818 -2.4255782 7.76185023 0 0 Z " fill="#E8C332" transform="translate(280,128)"/>
</svg>
